<svg width="32" height="32" viewBox="0 0 32 32" fill="none" xmlns="http://www.w3.org/2000/svg">
<path d="M23.9968 19.736L21.4688 17.8C20.9808 17.4258 20.3678 17.2532 19.7563 17.3178C19.1448 17.3825 18.5814 17.6793 18.1824 18.1472L17.5584 18.88C15.6733 17.8813 14.1315 16.3395 13.1328 14.4544L13.864 13.8304C14.3323 13.4321 14.6297 12.869 14.6946 12.2577C14.7595 11.6463 14.587 11.0334 14.2128 10.5456L12.2768 8.01598C12.0728 7.74911 11.815 7.52805 11.5202 7.36708C11.2253 7.20612 10.9 7.10884 10.5652 7.08155C10.2304 7.05425 9.89356 7.09754 9.57654 7.20862C9.25952 7.31969 8.96934 7.49608 8.72479 7.72638L7.81919 8.57918C7.58073 8.8016 7.39041 9.07054 7.25996 9.3694C7.12952 9.66826 7.06174 9.99069 7.06079 10.3168C7.13472 14.1711 8.71872 17.8424 11.472 20.5408C14.1777 23.2972 17.8626 24.8735 21.7248 24.9264H21.7296C22.0539 24.9242 22.3744 24.856 22.6715 24.7259C22.9686 24.5958 23.2361 24.4065 23.4576 24.1696L24.2864 23.2848C24.5162 23.0404 24.6923 22.7505 24.8032 22.4339C24.9141 22.1172 24.9574 21.7808 24.9302 21.4464C24.9031 21.112 24.8061 20.787 24.6456 20.4924C24.4851 20.1978 24.263 19.9401 23.9968 19.736ZM23.12 22.1888L22.2912 23.0736C22.2201 23.1534 22.1328 23.2172 22.0351 23.2608C21.9375 23.3044 21.8317 23.3267 21.7248 23.3264C18.2869 23.2746 15.0088 21.8662 12.6048 19.408C10.1481 17.0099 8.7317 13.7427 8.66079 10.3104C8.66165 10.2037 8.68472 10.0984 8.72852 10.0012C8.77232 9.90395 8.83589 9.8169 8.91519 9.74558L9.82239 8.89118C9.96955 8.75125 10.1649 8.67333 10.368 8.67358C10.3904 8.67358 10.4144 8.67358 10.4352 8.67678C10.5469 8.68516 10.6556 8.71716 10.7541 8.77067C10.8526 8.82418 10.9386 8.89797 11.0064 8.98718L12.9424 11.52C13.0672 11.6824 13.1249 11.8865 13.1035 12.0902C13.082 12.2939 12.9831 12.4816 12.8272 12.6144L11.6272 13.6384C11.4961 13.7499 11.4045 13.9008 11.3662 14.0686C11.3278 14.2365 11.3447 14.4122 11.4144 14.5696C12.6287 17.2431 14.7712 19.3857 17.4448 20.6C17.6022 20.6699 17.7779 20.6869 17.9458 20.6486C18.1137 20.6102 18.2646 20.5185 18.376 20.3872L19.4 19.1872C19.5321 19.0303 19.7198 18.9306 19.9237 18.9089C20.1277 18.8871 20.3321 18.945 20.4944 19.0704L23.0256 21.008C23.1147 21.0759 23.1886 21.1618 23.2423 21.2601C23.2961 21.3584 23.3285 21.4669 23.3376 21.5786C23.3466 21.6902 23.3321 21.8026 23.2949 21.9083C23.2577 22.0139 23.1986 22.1106 23.1216 22.192L23.12 22.1888Z" fill="#BE9B00"/>
</svg>
