<svg width="32" height="32" viewBox="0 0 32 32" fill="none" xmlns="http://www.w3.org/2000/svg">
<path d="M26.6666 24V9.33332C26.6666 6.79999 24.9333 4.79999 22.6666 4.13332V3.99999C22.6666 3.19999 22.1333 2.66666 21.3333 2.66666C20.5333 2.66666 19.9999 3.19999 19.9999 3.99999H17.3333C17.3333 3.19999 16.7999 2.66666 15.9999 2.66666C15.1999 2.66666 14.6666 3.19999 14.6666 3.99999H11.9999C11.9999 3.19999 11.4666 2.66666 10.6666 2.66666C9.86658 2.66666 9.33325 3.19999 9.33325 3.99999V4.13332C7.06659 4.79999 5.33325 6.79999 5.33325 9.33332V24C5.33325 26.9333 7.73325 29.3333 10.6666 29.3333H21.3333C24.2666 29.3333 26.6666 26.9333 26.6666 24ZM23.9999 24C23.9999 25.4667 22.7999 26.6667 21.3333 26.6667H10.6666C9.19992 26.6667 7.99992 25.4667 7.99992 24V9.33332C7.99992 8.26666 8.53325 7.46666 9.46658 7.06666C9.59992 7.59999 9.99992 7.99999 10.6666 7.99999C11.4666 7.99999 11.9999 7.46666 11.9999 6.66666H14.6666C14.6666 7.46666 15.1999 7.99999 15.9999 7.99999C16.7999 7.99999 17.3333 7.46666 17.3333 6.66666H19.9999C19.9999 7.46666 20.5333 7.99999 21.3333 7.99999C21.9999 7.99999 22.3999 7.59999 22.5333 7.06666C23.4666 7.46666 23.9999 8.26666 23.9999 9.33332V24Z" fill="#FF830A"/>
<path d="M14.6667 18.6666H12.0001C11.2001 18.6666 10.6667 19.2 10.6667 20C10.6667 20.8 11.2001 21.3333 12.0001 21.3333H14.6667C15.4667 21.3333 16.0001 20.8 16.0001 20C16.0001 19.2 15.4667 18.6666 14.6667 18.6666ZM18.6667 13.3333H12.0001C11.2001 13.3333 10.6667 13.8666 10.6667 14.6666C10.6667 15.4666 11.2001 16 12.0001 16H18.6667C19.4667 16 20.0001 15.4666 20.0001 14.6666C20.0001 13.8666 19.4667 13.3333 18.6667 13.3333Z" fill="#FF830A"/>
</svg>
