<svg width="24" height="25" viewBox="0 0 24 25" fill="none" xmlns="http://www.w3.org/2000/svg">
<path d="M12 1.25C9.77497 1.25 7.59989 1.9098 5.74984 3.14597C3.89979 4.38213 2.45785 6.13914 1.60636 8.19481C0.754875 10.2505 0.532087 12.5125 0.966171 14.6948C1.40025 16.8771 2.47171 18.8816 4.04505 20.455C5.61839 22.0283 7.62295 23.0998 9.80524 23.5338C11.9875 23.9679 14.2495 23.7451 16.3052 22.8936C18.3609 22.0422 20.1179 20.6002 21.354 18.7502C22.5902 16.9001 23.25 14.725 23.25 12.5C23.25 9.51632 22.0647 6.65483 19.955 4.54505C17.8452 2.43526 14.9837 1.25 12 1.25ZM12 21.6538C10.1896 21.6538 8.41978 21.1169 6.91445 20.1111C5.40913 19.1052 4.23587 17.6756 3.54304 16.003C2.85022 14.3304 2.66894 12.4898 3.02214 10.7142C3.37534 8.93854 4.24715 7.3075 5.52733 6.02732C6.8075 4.74715 8.43854 3.87534 10.2142 3.52214C11.9899 3.16894 13.8304 3.35021 15.503 4.04304C17.1756 4.73586 18.6052 5.90912 19.6111 7.41445C20.6169 8.91978 21.1538 10.6896 21.1538 12.5C21.1538 14.9277 20.1893 17.256 18.4727 18.9727C16.756 20.6893 14.4277 21.6538 12 21.6538Z" fill="#FF9909"/>
<path d="M15.5029 20.9563C20.1735 19.0217 22.3915 13.667 20.4568 8.9964C18.5222 4.32574 13.1675 2.10777 8.49688 4.04242C3.82623 5.97707 1.60826 11.3317 3.54291 16.0024C5.47755 20.673 10.8322 22.891 15.5029 20.9563Z" fill="#FBCB00"/>
<path d="M13.71 11.7499H10.29C10.0911 11.7499 9.90036 11.6709 9.75971 11.5302C9.61906 11.3896 9.54004 11.1988 9.54004 10.9999V9.19239C9.54004 8.99348 9.61906 8.80272 9.75971 8.66206C9.90036 8.52141 10.0911 8.44239 10.29 8.44239H15.7275V6.94239H12.75V5.57739H11.25V6.95739H10.29C9.6933 6.95739 9.12101 7.19445 8.69905 7.6164C8.27709 8.03836 8.04004 8.61066 8.04004 9.20739V10.9999C8.04004 11.5966 8.27709 12.1689 8.69905 12.5909C9.12101 13.0128 9.6933 13.2499 10.29 13.2499H13.71C13.909 13.2499 14.0997 13.3289 14.2404 13.4696C14.381 13.6102 14.46 13.801 14.46 13.9999V15.8224C14.46 16.0213 14.381 16.2121 14.2404 16.3527C14.0997 16.4934 13.909 16.5724 13.71 16.5724H8.27254V18.0724H11.25V19.4524H12.75V18.0424H13.71C14.3068 18.0424 14.8791 17.8053 15.301 17.3834C15.723 16.9614 15.96 16.3891 15.96 15.7924V13.9999C15.96 13.4032 15.723 12.8309 15.301 12.4089C14.8791 11.9869 14.3068 11.7499 13.71 11.7499Z" fill="#E6E7E8"/>
</svg>
