<svg width="32" height="32" viewBox="0 0 32 32" fill="none" xmlns="http://www.w3.org/2000/svg">
<path d="M16 15C18.7614 15 21 12.7614 21 10C21 7.23858 18.7614 5 16 5C13.2386 5 11 7.23858 11 10C11 12.7614 13.2386 15 16 15Z" fill="#069DFD"/>
<path d="M22.6299 19.23C20.7205 17.7877 18.3928 17.0074 15.9999 17.0074C13.607 17.0074 11.2793 17.7877 9.36991 19.23C8.94477 19.5559 8.60033 19.9752 8.36328 20.4556C8.12623 20.9359 8.00293 21.4644 8.00293 22C8.00293 22.5357 8.12623 23.0641 8.36328 23.5445C8.60033 24.0248 8.94477 24.4442 9.36991 24.77C11.2793 26.2123 13.607 26.9926 15.9999 26.9926C18.3928 26.9926 20.7205 26.2123 22.6299 24.77C23.0551 24.4442 23.3995 24.0248 23.6365 23.5445C23.8736 23.0641 23.9969 22.5357 23.9969 22C23.9969 21.4644 23.8736 20.9359 23.6365 20.4556C23.3995 19.9752 23.0551 19.5559 22.6299 19.23Z" fill="#069DFD"/>
</svg>
