<svg width="24" height="24" viewBox="0 0 24 24" fill="none" xmlns="http://www.w3.org/2000/svg">
<g clip-path="url(#clip0_100_41)">
<path fill-rule="evenodd" clip-rule="evenodd" d="M1.17157 2.17157C1.92172 1.42143 2.93913 1 4 1H20C21.0609 1 22.0783 1.42143 22.8284 2.17157C23.5786 2.92172 24 3.93913 24 5V15C24 16.0609 23.5786 17.0783 22.8284 17.8284C22.0783 18.5786 21.0609 19 20 19H13.4142L9.70711 22.7071C9.42111 22.9931 8.99099 23.0787 8.61732 22.9239C8.24364 22.7691 8 22.4045 8 22V19H4C2.93913 19 1.92172 18.5786 1.17157 17.8284C0.421427 17.0783 0 16.0609 0 15V5C0 3.93913 0.421427 2.92172 1.17157 2.17157ZM4 3C3.46957 3 2.96086 3.21071 2.58579 3.58579C2.21071 3.96086 2 4.46957 2 5V15C2 15.5304 2.21071 16.0391 2.58579 16.4142C2.96086 16.7893 3.46957 17 4 17H9C9.55229 17 10 17.4477 10 18V19.5858L12.2929 17.2929C12.4804 17.1054 12.7348 17 13 17H20C20.5304 17 21.0391 16.7893 21.4142 16.4142C21.7893 16.0391 22 15.5304 22 15V5C22 4.46957 21.7893 3.96086 21.4142 3.58579C21.0391 3.21071 20.5304 3 20 3H4Z" fill="#FF5A1C"/>
<path fill-rule="evenodd" clip-rule="evenodd" d="M5 8C5 7.44772 5.44772 7 6 7H13C13.5523 7 14 7.44772 14 8C14 8.55228 13.5523 9 13 9H6C5.44772 9 5 8.55228 5 8ZM5 12C5 11.4477 5.44772 11 6 11H18C18.5523 11 19 11.4477 19 12C19 12.5523 18.5523 13 18 13H6C5.44772 13 5 12.5523 5 12Z" fill="#FF5A1C"/>
</g>
<defs>
<clipPath id="clip0_100_41">
<rect width="24" height="24" fill="white"/>
</clipPath>
</defs>
</svg>
